<?xml version="1.0" encoding="UTF-8" standalone="no"?>
<!-- Created with Inkscape (http://www.inkscape.org/) -->

<svg
   xmlns:dc="http://purl.org/dc/elements/1.1/"
   xmlns:cc="http://creativecommons.org/ns#"
   xmlns:rdf="http://www.w3.org/1999/02/22-rdf-syntax-ns#"
   xmlns:svg="http://www.w3.org/2000/svg"
   xmlns="http://www.w3.org/2000/svg"
   xmlns:sodipodi="http://sodipodi.sourceforge.net/DTD/sodipodi-0.dtd"
   xmlns:inkscape="http://www.inkscape.org/namespaces/inkscape"
   width="79.864235mm"
   height="21.455303mm"
   viewBox="0 0 79.864235 21.455303"
   version="1.1"
   id="svg8"
   inkscape:version="0.92.4 5da689c313, 2019-01-14"
   sodipodi:docname="logo.svg">
  <defs
     id="defs2" />
  <sodipodi:namedview
     id="base"
     pagecolor="#ffffff"
     bordercolor="#666666"
     borderopacity="1.0"
     inkscape:pageopacity="0.0"
     inkscape:pageshadow="2"
     inkscape:zoom="0.98994949"
     inkscape:cx="19.609417"
     inkscape:cy="-29.520604"
     inkscape:document-units="mm"
     inkscape:current-layer="layer1"
     showgrid="true"
     inkscape:window-width="1918"
     inkscape:window-height="1055"
     inkscape:window-x="1920"
     inkscape:window-y="0"
     inkscape:window-maximized="0">
    <inkscape:grid
       type="xygrid"
       id="grid3744"
       originx="-47.135764"
       originy="-127.31333" />
  </sodipodi:namedview>
  <metadata
     id="metadata5">
    <rdf:RDF>
      <cc:Work
         rdf:about="">
        <dc:format>image/svg+xml</dc:format>
        <dc:type
           rdf:resource="http://purl.org/dc/dcmitype/StillImage" />
        <dc:title></dc:title>
      </cc:Work>
    </rdf:RDF>
  </metadata>
  <g
     inkscape:label="Layer 1"
     inkscape:groupmode="layer"
     id="layer1"
     transform="translate(-47.135766,-148.23136)">
    <path
       style="fill:#ffffff;stroke-width:0.4152742"
       d="m 96.093503,148.23464 c -0.189644,-0.0242 -0.374219,0.0857 -0.634793,0.31971 -0.53362,0.47901 -0.594055,1.43312 -0.407863,6.44151 0.120214,3.23357 0.304864,6.90007 0.410202,8.1472 0.190973,2.26098 0.188069,2.26751 -0.96311,2.26751 -1.263489,0 -1.631015,-0.75799 -1.641576,-3.37849 -0.0056,-1.48543 -1.463913,-4.59951 -2.738038,-5.84678 -0.596639,-0.58408 -0.955233,-0.62845 -1.973012,-0.24465 -1.774761,0.66924 -3.020395,3.61069 -3.213746,7.5896 -0.130612,2.68783 -0.04145,3.20376 0.690165,3.99516 1.116554,1.20777 2.903768,1.15502 4.311765,-0.12652 l 1.137016,-1.03421 1.087887,1.01229 c 0.958713,0.89203 1.241368,0.95555 2.366051,0.53145 0.958442,-0.36135 1.315296,-0.35598 1.431798,0.0219 0.203937,0.66181 1.556326,0.64766 1.937915,-0.0202 0.164525,-0.28792 0.259154,-1.16254 0.210561,-1.94358 -0.12032,-1.93244 0.512541,-1.84272 3.708165,0.52386 2.63383,1.95053 3.56167,2.30351 4.00685,1.52433 0.51003,-0.89267 -1.06165,-2.98454 -3.57169,-4.75353 l -2.623405,-1.84909 1.803785,-2.0853 c 1.16011,-1.34163 1.80378,-2.47715 1.80378,-3.18364 0,-1.72503 -1.34644,-1.37354 -3.237141,0.84524 -0.910903,1.06897 -1.793187,1.9436 -1.960529,1.9436 -0.167331,0 -0.372102,-2.13439 -0.454649,-4.74256 -0.117619,-3.71689 -0.294743,-4.89941 -0.821961,-5.4697 -0.279836,-0.3027 -0.474786,-0.46091 -0.664427,-0.48506 z m -43.548159,2.12663 c -0.685231,0.0251 -1.31845,0.47128 -2.393347,1.63401 -0.891718,0.96459 -1.621297,1.64981 -1.621297,1.52265 0,-0.12717 -0.335205,-0.0372 -0.744755,0.19992 -0.685949,0.39711 -0.731367,0.91736 -0.577085,6.60178 0.21124,7.78318 0.273092,8.11429 1.528495,8.11429 0.673856,0 0.993728,-0.24168 0.999765,-0.75583 0.0077,-0.65999 0.0964,-0.63994 0.698742,0.15948 0.379425,0.50353 1.049514,1.14034 1.488727,1.41466 2.652381,1.6567 6.987421,-1.70069 6.987421,-5.41149 0,-1.94952 -1.559788,-4.87217 -3.19581,-5.98936 -1.497851,-1.02282 -1.501325,-1.03209 -1.152613,-3.05118 0.446212,-2.58363 -0.194767,-4.23352 -1.719561,-4.42453 -0.101427,-0.0131 -0.20079,-0.018 -0.298682,-0.0147 z m 31.004335,0.79381 c -0.497528,-0.0464 -1.07604,0.12423 -1.397484,0.54327 -0.228057,0.29724 -0.692602,2.84856 -1.032513,5.67046 -0.561853,4.66439 -0.832251,5.92672 -1.161194,5.41404 -0.0635,-0.0989 -0.722743,-1.83172 -1.464551,-3.8509 -1.559744,-4.24556 -1.859017,-4.75099 -2.812903,-4.75099 -0.705853,0 -1.232921,1.05333 -1.944156,3.88717 l -0.379006,1.51168 -0.07565,-2.15953 c -0.124486,-3.54618 -0.448182,-4.30048 -1.911404,-4.45489 -1.651415,-0.17426 -1.946639,0.61982 -1.129214,3.03768 0.343864,1.01711 0.882355,3.9437 1.196281,6.50394 0.313931,2.56023 0.797496,4.95073 1.074629,5.31195 0.27713,0.36121 0.87901,0.59892 1.337436,0.52809 0.730082,-0.1128 0.904141,-0.63816 1.403722,-4.2322 l 0.570065,-4.10312 0.616861,1.72762 c 0.33895,0.95021 1.070014,2.69943 1.625198,3.88717 0.806025,1.72441 1.211036,2.15955 2.008105,2.15955 1.551119,0 2.639312,-2.88687 3.58261,-9.50199 0.440358,-3.08812 0.802539,-5.95491 0.804803,-6.37063 0.0026,-0.44872 -0.414115,-0.71196 -0.911642,-0.75837 z m -31.216453,1.85755 c 0.279297,-0.0229 0.199469,0.64575 -0.23395,2.83185 -0.233133,1.17588 -0.772158,2.47842 -1.197844,2.89514 -0.748987,0.7332 -0.773484,0.7173 -0.76503,-0.49687 0.0097,-1.38404 1.252317,-4.65016 1.945715,-5.11371 0.102755,-0.0687 0.186657,-0.11117 0.251109,-0.11639 z m 12.532125,2.57204 c -0.175517,-0.007 -0.347762,0.0114 -0.513136,0.0557 -1.279936,0.34751 -3.775743,3.06638 -4.495036,4.89693 -0.991606,2.52358 -0.527766,6.04318 0.967011,7.33822 0.981673,0.85051 5.006083,0.46123 7.570746,-0.73222 1.687757,-0.78538 2.096225,-1.17519 2.096225,-2.00179 0,-1.27597 -0.405365,-1.28413 -4.175298,-0.0844 -2.202806,0.70104 -3.189278,0.83214 -3.852436,0.51206 -0.870851,-0.42035 -0.858862,-0.4525 0.524836,-1.37754 2.369066,-1.58381 4.775709,-4.69637 4.632283,-5.99189 -0.147952,-1.33648 -1.526568,-2.56861 -2.755195,-2.61506 z m 46.715889,0 c -0.17551,-0.007 -0.34776,0.0114 -0.51313,0.0557 -1.27994,0.34751 -3.77574,3.06638 -4.49504,4.89693 -0.99161,2.52358 -0.52778,6.04318 0.96701,7.33822 0.98006,0.84911 5.0044,0.46198 7.55983,-0.72716 l 2.08531,-0.97009 1.23917,1.12785 c 2.50237,2.27766 6.76828,1.11331 6.76828,-1.84743 0,-1.21975 -1.53967,-3.87253 -3.13654,-5.40559 -1.14148,-1.09593 -1.08366,-1.63143 0.14038,-1.2991 1.51647,0.41171 2.32157,-0.0591 1.82328,-1.06628 -0.44081,-0.89096 -2.37235,-1.77908 -3.86882,-1.77908 -1.14493,0 -2.27525,1.71111 -1.88566,2.85464 0.15302,0.44918 1.14562,1.8524 2.2054,3.11867 2.15591,2.57601 2.49139,3.96057 0.96077,3.96057 -1.4557,0 -2.22802,-0.44093 -2.22802,-1.27041 0,-1.09095 -0.31862,-1.27054 -1.5207,-0.85961 -4.61959,1.57919 -7.69194,2.2484 -8.51046,1.85332 -0.86036,-0.41527 -0.84652,-0.45268 0.53186,-1.37416 2.36906,-1.58381 4.77565,-4.69637 4.63228,-5.99188 -0.14795,-1.33649 -1.52657,-2.56861 -2.75519,-2.61507 z m -46.49987,2.58639 c 0.03317,0.002 0.05964,0.0131 0.07876,0.0338 0.147348,0.15932 -0.07487,0.70072 -0.494422,1.20293 -0.41956,0.50218 -1.278174,1.3099 -1.907501,1.79511 -1.074286,0.82829 -1.119049,0.83224 -0.733056,0.0616 0.578554,-1.15511 2.558718,-3.12456 3.056218,-3.09337 z m 46.71589,0 c 0.0332,0.002 0.0596,0.0131 0.0788,0.0338 0.14735,0.15932 -0.0749,0.70072 -0.49442,1.20293 -0.41956,0.50218 -1.27818,1.3099 -1.9075,1.79511 -1.07428,0.82829 -1.11906,0.83224 -0.73306,0.0616 0.57856,-1.15511 2.55872,-3.12456 3.05622,-3.09337 z m -22.737969,0.081 c 0.139018,0.0247 0.288955,0.16161 0.500663,0.39057 0.97498,1.05465 0.775368,4.44631 -0.336895,5.727 -0.497036,0.57229 -1.163412,1.04097 -1.480928,1.04097 -0.826685,0 -0.468002,-4.69832 0.478046,-6.26014 0.405607,-0.66961 0.607403,-0.93934 0.839114,-0.8984 z m -34.990127,1.42226 1.223578,1.32357 c 1.546479,1.67284 1.637495,3.57187 0.243313,5.07997 -1.197871,1.29577 -1.418662,1.30588 -2.806666,0.12488 -0.901848,-0.76736 -1.234593,-0.84466 -1.850576,-0.42854 -0.688285,0.46497 -0.750989,0.36264 -0.750989,-1.22401 0,-1.06487 0.185318,-1.73101 0.481944,-1.73101 0.265248,0 1.151895,-0.70758 1.970669,-1.57242 z m 72.919486,7.6554 7.9e-4,0.0245 H 127 a 20.116324,26.123035 0 0 1 -0.0106,-0.0245 z"
       id="path3737"
       inkscape:connector-curvature="0" />
  </g>
</svg>
